<svg width="40" height="41" viewBox="0 0 40 41" fill="none" xmlns="http://www.w3.org/2000/svg">
<path d="M13.7782 24.9766C13.4715 24.9766 13.2649 25.0066 13.1582 25.0366V26.9999C13.2849 27.0299 13.4432 27.0382 13.6615 27.0382C14.4599 27.0382 14.9515 26.6349 14.9515 25.9532C14.9515 25.3432 14.5282 24.9766 13.7782 24.9766ZM19.5899 24.9966C19.2565 24.9966 19.0399 25.0266 18.9115 25.0566V29.4066C19.0399 29.4366 19.2465 29.4366 19.4332 29.4366C20.7949 29.4466 21.6815 28.6966 21.6815 27.1099C21.6915 25.7266 20.8832 24.9966 19.5899 24.9966Z" fill="#3377FF"/>
<path d="M23.3327 3.84375H9.99935C9.11529 3.84375 8.26745 4.19494 7.64233 4.82006C7.0172 5.44518 6.66602 6.29303 6.66602 7.17708V33.8438C6.66602 34.7278 7.0172 35.5756 7.64233 36.2008C8.26745 36.8259 9.11529 37.1771 9.99935 37.1771H29.9993C30.8834 37.1771 31.7313 36.8259 32.3564 36.2008C32.9815 35.5756 33.3327 34.7278 33.3327 33.8438V13.8438L23.3327 3.84375ZM15.8293 27.4937C15.3143 27.9771 14.5543 28.1938 13.6693 28.1938C13.4978 28.1956 13.3262 28.1856 13.156 28.1637V30.5404H11.666V23.9804C12.3384 23.8801 13.0179 23.8344 13.6977 23.8438C14.626 23.8438 15.286 24.0204 15.731 24.3754C16.1543 24.7121 16.441 25.2637 16.441 25.9137C16.4393 26.5671 16.2227 27.1187 15.8293 27.4937ZM22.1743 29.7521C21.4743 30.3337 20.4093 30.6104 19.1077 30.6104C18.3277 30.6104 17.776 30.5604 17.401 30.5104V23.9821C18.0737 23.8839 18.7529 23.8377 19.4327 23.8438C20.6943 23.8438 21.5143 24.0704 22.1544 24.5537C22.846 25.0671 23.2794 25.8854 23.2794 27.0604C23.2794 28.3321 22.8144 29.2104 22.1743 29.7521ZM28.3327 25.1271H25.7794V26.6454H28.166V27.8688H25.7794V30.5421H24.2694V23.8937H28.3327V25.1271ZM23.3327 15.5104H21.666V7.17708L29.9993 15.5104H23.3327Z" fill="#3377FF"/>
</svg>
