<svg width="28" height="27" viewBox="0 0 28 27" fill="none" xmlns="http://www.w3.org/2000/svg">
<circle cx="13.8336" cy="13.3336" r="11.1111" stroke="#06C270" stroke-width="2.22222"/>
<path d="M20.3076 9.07783C20.1861 8.95667 20.0218 8.88867 19.8505 8.88867C19.6792 8.88867 19.5149 8.95667 19.3935 9.07783L12.1972 16.2656L8.30733 12.3627C8.18869 12.2342 8.02402 12.1582 7.84955 12.1515C7.67508 12.1448 7.5051 12.2079 7.377 12.327C7.24891 12.446 7.17319 12.6112 7.1665 12.7863C7.15981 12.9613 7.22271 13.1319 7.34135 13.2604L12.1972 18.1194L20.3076 10.0015C20.3683 9.94103 20.4166 9.86909 20.4495 9.78982C20.4824 9.71055 20.4993 9.62553 20.4993 9.53966C20.4993 9.45379 20.4824 9.36877 20.4495 9.28951C20.4166 9.21024 20.3683 9.1383 20.3076 9.07783Z" fill="#06C270" stroke="#06C270" stroke-width="1.11111"/>
</svg>
