<svg width="94" height="30" viewBox="0 0 94 30" fill="none" xmlns="http://www.w3.org/2000/svg">
<path d="M81.4688 13.7149C81.4688 11.1053 83.3697 9.80043 87.1716 9.80043C88.0637 9.80043 88.9558 9.8838 89.848 10.0506V9.06256C89.848 7.88697 89.0017 7.29917 87.3092 7.29917C85.8751 7.29917 84.2827 7.50761 82.5318 7.92449V5.29817C84.2827 4.88129 85.8751 4.67285 87.3092 4.67285C91.2111 4.67285 93.1621 6.11524 93.1621 9.00003V17.8045H91.2362L90.0606 16.6289C88.9183 17.4126 87.6594 17.8045 86.2837 17.8045C83.0737 17.8045 81.4688 16.4413 81.4688 13.7149ZM89.848 12.3017C89.0142 12.1349 88.1221 12.0516 87.1716 12.0516C85.5791 12.0516 84.7829 12.5935 84.7829 13.6774C84.7829 14.8446 85.4499 15.4283 86.7839 15.4283C87.8845 15.4283 88.9058 15.0864 89.848 14.4027V12.3017Z" fill="#1F4E8C"/>
<path d="M73.5898 17.8045V4.67285H76.1536L76.5663 6.34869C77.7169 5.23147 78.9342 4.67285 80.2182 4.67285V7.3492C78.9842 7.3492 77.8795 7.86195 76.904 8.88747V17.8045H73.5898Z" fill="#1F4E8C"/>
<path d="M70.4513 4.67285V17.8045H67.8625L67.4623 16.1286C65.9532 17.2458 64.3524 17.8045 62.6598 17.8045C59.9752 17.8045 58.6328 16.2162 58.6328 13.0396V4.67285H61.947V12.952C61.947 14.4027 62.5806 15.1281 63.8479 15.1281C64.9235 15.1281 66.0199 14.6987 67.1371 13.84V4.67285H70.4513Z" fill="#1F4E8C"/>
<path d="M50.1152 2.54688H52.5665L53.0667 4.67294H56.3684V7.29926H53.4294V13.3398C53.4294 14.5654 53.9588 15.1782 55.0177 15.1782H56.3684V17.8045H53.4169C51.2158 17.8045 50.1152 16.6248 50.1152 14.2653V2.54688Z" fill="#1F4E8C"/>
<path d="M35.2207 17.8045V4.67285H37.7845L38.1972 6.59882C39.4562 5.31484 40.8902 4.67285 42.4994 4.67285C45.6093 4.67285 47.1642 6.29033 47.1642 9.52529V17.8045H43.85V9.52529C43.85 8.07456 43.1288 7.3492 41.6865 7.3492C40.6109 7.3492 39.5604 7.77858 38.5349 8.63734V17.8045H35.2207Z" fill="#1F4E8C"/>
<path d="M26.7535 4.67285C30.7388 4.67285 32.7315 6.70721 32.7315 10.7759C32.7315 11.3179 32.694 11.8598 32.6189 12.4017H23.9021C23.9021 14.2527 25.2611 15.1781 27.9791 15.1781C29.3048 15.1781 30.6304 15.0531 31.9561 14.8029V17.4293C30.7972 17.6794 29.3881 17.8045 27.729 17.8045C22.9683 17.8045 20.5879 15.5658 20.5879 11.0886C20.5879 6.81143 22.6431 4.67285 26.7535 4.67285ZM23.9021 10.1006H29.5049V10.0005C29.5049 8.18295 28.5877 7.27416 26.7535 7.27416C25.0026 7.27416 24.0521 8.2163 23.9021 10.1006Z" fill="#1F4E8C"/>
<path d="M19.6507 0.00976562L11.8485 17.8041H8.3021L0.835938 0.00976562H4.75567L10.2682 13.6355L15.7683 0.00976562H19.6507Z" fill="#1F4E8C"/>
<path d="M71.1082 26.3608C71.9862 26.3608 72.6245 26.5197 73.0231 26.8374C73.4274 27.1493 73.6296 27.5883 73.6296 28.1544C73.6296 28.5068 73.5459 28.8216 73.3783 29.0989C73.2166 29.3762 72.9711 29.5957 72.6418 29.7574C72.3126 29.9134 71.9082 29.9914 71.4288 29.9914C70.9955 29.9914 70.5825 29.922 70.1897 29.7834C69.8027 29.639 69.4907 29.4484 69.2539 29.2115L69.5572 28.7176C69.7594 28.9256 70.0251 29.096 70.3543 29.2289C70.6836 29.3559 71.0389 29.4195 71.4201 29.4195C71.9227 29.4195 72.3097 29.3068 72.5812 29.0816C72.8585 28.8563 72.9971 28.5559 72.9971 28.1804C72.9971 27.7645 72.8411 27.4497 72.5292 27.236C72.223 27.0222 71.7032 26.9154 70.9695 26.9154H69.6785L69.9904 23.874H73.309V24.4286H70.5363L70.3283 26.3608H71.1082Z" fill="#2C87BF"/>
<path d="M66.7472 26.3081C67.1457 26.3081 67.4981 26.3832 67.8043 26.5334C68.1162 26.6836 68.3588 26.8973 68.5321 27.1746C68.7054 27.4461 68.792 27.7638 68.792 28.1277C68.792 28.4974 68.7025 28.8238 68.5234 29.1068C68.3444 29.3899 68.096 29.6094 67.7783 29.7653C67.4663 29.9155 67.114 29.9906 66.7212 29.9906C65.9182 29.9906 65.303 29.7278 64.8756 29.2021C64.4481 28.6707 64.2344 27.9226 64.2344 26.9579C64.2344 26.2821 64.3499 25.7102 64.581 25.2423C64.812 24.7744 65.1355 24.422 65.5514 24.1852C65.9673 23.9426 66.4526 23.8213 67.0071 23.8213C67.6079 23.8213 68.0873 23.931 68.4455 24.1506L68.1942 24.6531C67.9054 24.4625 67.5126 24.3672 67.0158 24.3672C66.3457 24.3672 65.82 24.5809 65.4388 25.0084C65.0575 25.43 64.8669 26.0452 64.8669 26.854C64.8669 26.9984 64.8756 27.163 64.8929 27.3479C65.0431 27.0186 65.2828 26.7644 65.6121 26.5854C65.9413 26.4005 66.3197 26.3081 66.7472 26.3081ZM66.6952 29.4621C67.1342 29.4621 67.4894 29.3436 67.7609 29.1068C68.0382 28.8642 68.1768 28.5436 68.1768 28.145C68.1768 27.7464 68.0382 27.4287 67.7609 27.1919C67.4894 26.9551 67.1197 26.8366 66.6518 26.8366C66.3457 26.8366 66.0742 26.8944 65.8374 27.0099C65.6063 27.1255 65.4243 27.2843 65.2915 27.4865C65.1586 27.6887 65.0922 27.914 65.0922 28.1623C65.0922 28.3934 65.1528 28.6071 65.2741 28.8035C65.4012 28.9999 65.5861 29.1588 65.8287 29.2801C66.0713 29.4014 66.3601 29.4621 66.6952 29.4621Z" fill="#2C87BF"/>
<path d="M61.4055 26.4735C62.0409 26.5081 62.5233 26.6814 62.8525 26.9933C63.1876 27.2995 63.3551 27.701 63.3551 28.1977C63.3551 28.5443 63.2713 28.8534 63.1038 29.1249C62.9363 29.3906 62.6879 29.6014 62.3586 29.7574C62.0294 29.9134 61.6279 29.9914 61.1542 29.9914C60.7152 29.9914 60.2993 29.922 59.9065 29.7834C59.5195 29.639 59.2075 29.4484 58.9707 29.2115L59.274 28.7176C59.4762 28.9256 59.7448 29.096 60.0798 29.2289C60.4148 29.3559 60.773 29.4195 61.1542 29.4195C61.651 29.4195 62.0351 29.3126 62.3066 29.0989C62.5781 28.8794 62.7139 28.579 62.7139 28.1977C62.7139 27.8223 62.5781 27.5277 62.3066 27.3139C62.0351 27.1002 61.625 26.9933 61.0762 26.9933H60.643V26.5341L62.324 24.4286H59.222V23.874H63.1211V24.3159L61.4055 26.4735Z" fill="#2C87BF"/>
<path d="M53.9658 25.3467C54.5608 25.3467 55.0171 25.4969 55.3348 25.7972C55.6525 26.0919 55.8114 26.5309 55.8114 27.1143V29.939H55.2222V29.2285C55.0836 29.4653 54.8785 29.6502 54.607 29.783C54.3413 29.9159 54.0236 29.9823 53.6539 29.9823C53.1455 29.9823 52.7412 29.861 52.4408 29.6184C52.1404 29.3758 51.9902 29.0552 51.9902 28.6566C51.9902 28.2696 52.1289 27.9577 52.4061 27.7208C52.6892 27.484 53.1369 27.3656 53.7492 27.3656H55.1962V27.0883C55.1962 26.6955 55.0864 26.398 54.8669 26.1958C54.6474 25.9879 54.3268 25.8839 53.9051 25.8839C53.6163 25.8839 53.3391 25.933 53.0733 26.0312C52.8076 26.1236 52.5794 26.2536 52.3888 26.4211L52.1115 25.9619C52.3426 25.7655 52.6199 25.6153 52.9434 25.5113C53.2668 25.4016 53.6077 25.3467 53.9658 25.3467ZM53.7492 29.4971C54.0958 29.4971 54.3933 29.4191 54.6417 29.2632C54.89 29.1014 55.0749 28.8704 55.1962 28.57V27.8248H53.7665C52.9867 27.8248 52.5968 28.0963 52.5968 28.6393C52.5968 28.905 52.6979 29.1159 52.9 29.2718C53.1022 29.422 53.3853 29.4971 53.7492 29.4971Z" fill="#2C87BF"/>
<path d="M48.83 25.3467C49.4018 25.3467 49.8553 25.5142 50.1903 25.8492C50.5312 26.1785 50.7016 26.6608 50.7016 27.2963V29.939H50.0864V27.3569C50.0864 26.8832 49.9679 26.5222 49.7311 26.2738C49.4943 26.0254 49.1563 25.9012 48.7173 25.9012C48.2263 25.9012 47.8364 26.0485 47.5476 26.3431C47.2645 26.632 47.123 27.0334 47.123 27.5475V29.939H46.5078V25.3813H47.097V26.2218C47.2645 25.9445 47.4956 25.7308 47.7902 25.5806C48.0906 25.4247 48.4372 25.3467 48.83 25.3467Z" fill="#2C87BF"/>
<path d="M44.1816 25.3814H44.7968V29.939H44.1816V25.3814ZM44.4935 24.3849C44.3665 24.3849 44.2596 24.3416 44.1729 24.2549C44.0863 24.1683 44.043 24.0643 44.043 23.943C44.043 23.8275 44.0863 23.7264 44.1729 23.6397C44.2596 23.5531 44.3665 23.5098 44.4935 23.5098C44.6206 23.5098 44.7275 23.5531 44.8141 23.6397C44.9008 23.7206 44.9441 23.8188 44.9441 23.9343C44.9441 24.0614 44.9008 24.1683 44.8141 24.2549C44.7275 24.3416 44.6206 24.3849 44.4935 24.3849Z" fill="#2C87BF"/>
<path d="M40.6763 25.3467C41.2482 25.3467 41.6958 25.5113 42.0193 25.8406C42.3486 26.1698 42.5132 26.6551 42.5132 27.2963V29.939H41.898V27.3569C41.898 26.8832 41.7825 26.5222 41.5514 26.2738C41.3261 26.0254 41.0055 25.9012 40.5896 25.9012C40.116 25.9012 39.7434 26.0485 39.4719 26.3431C39.2004 26.632 39.0646 27.0334 39.0646 27.5475V29.939H38.4494V27.3569C38.4494 26.8832 38.3339 26.5222 38.1028 26.2738C37.8776 26.0254 37.5541 25.9012 37.1324 25.9012C36.6645 25.9012 36.2919 26.0485 36.0146 26.3431C35.7431 26.632 35.6074 27.0334 35.6074 27.5475V29.939H34.9922V25.3813H35.5814V26.2132C35.7431 25.9359 35.9684 25.7222 36.2572 25.572C36.5461 25.4218 36.8782 25.3467 37.2537 25.3467C37.6349 25.3467 37.9642 25.4276 38.2415 25.5893C38.5245 25.751 38.7354 25.9908 38.874 26.3085C39.0415 26.0081 39.2813 25.7741 39.5932 25.6066C39.9109 25.4333 40.2719 25.3467 40.6763 25.3467Z" fill="#2C87BF"/>
<path d="M31.4218 29.9826C30.9828 29.9826 30.5871 29.8844 30.2347 29.688C29.8823 29.4858 29.6051 29.2086 29.4029 28.8562C29.2007 28.5038 29.0996 28.1053 29.0996 27.6605C29.0996 27.2157 29.2007 26.8171 29.4029 26.4647C29.6051 26.1124 29.8823 25.838 30.2347 25.6416C30.5871 25.4452 30.9828 25.347 31.4218 25.347C31.8608 25.347 32.2565 25.4452 32.6088 25.6416C32.9612 25.838 33.2356 26.1124 33.432 26.4647C33.6342 26.8171 33.7353 27.2157 33.7353 27.6605C33.7353 28.1053 33.6342 28.5038 33.432 28.8562C33.2356 29.2086 32.9612 29.4858 32.6088 29.688C32.2565 29.8844 31.8608 29.9826 31.4218 29.9826ZM31.4218 29.4367C31.7453 29.4367 32.0341 29.3645 32.2882 29.2201C32.5482 29.0699 32.7504 28.8591 32.8948 28.5876C33.0392 28.3161 33.1114 28.0071 33.1114 27.6605C33.1114 27.3139 33.0392 27.0048 32.8948 26.7333C32.7504 26.4618 32.5482 26.2539 32.2882 26.1095C32.0341 25.9593 31.7453 25.8842 31.4218 25.8842C31.0983 25.8842 30.8066 25.9593 30.5466 26.1095C30.2925 26.2539 30.0903 26.4618 29.9401 26.7333C29.7957 27.0048 29.7235 27.3139 29.7235 27.6605C29.7235 28.0071 29.7957 28.3161 29.9401 28.5876C30.0903 28.8591 30.2925 29.0699 30.5466 29.2201C30.8066 29.3645 31.0983 29.4367 31.4218 29.4367ZM32.037 23.5967H32.8601L31.4564 24.6711H30.8499L32.037 23.5967Z" fill="#2C87BF"/>
<path d="M27.7095 23.874V29.9394H27.181L23.2818 25.0178V29.9394H22.6406V23.874H23.1692L27.077 28.7956V23.874H27.7095Z" fill="#2C87BF"/>
</svg>
