<svg width="172" height="69" viewBox="0 0 172 69" fill="none" xmlns="http://www.w3.org/2000/svg">
<g opacity="0.7">
<path d="M47.43 10.8027V3.75273H49.66C50.4333 3.75273 51.0867 3.8894 51.62 4.16273C52.1533 4.4294 52.5567 4.82607 52.83 5.35273C53.11 5.87273 53.25 6.51273 53.25 7.27273C53.25 8.03273 53.11 8.67607 52.83 9.20273C52.5567 9.7294 52.1533 10.1294 51.62 10.4027C51.0867 10.6694 50.4333 10.8027 49.66 10.8027H47.43ZM48.05 10.2527H49.61C50.6167 10.2527 51.3667 10.0061 51.86 9.51273C52.3533 9.01273 52.6 8.26607 52.6 7.27273C52.6 6.27273 52.3533 5.52607 51.86 5.03273C51.3667 4.5394 50.6167 4.29273 49.61 4.29273H48.05V10.2527ZM56.8823 10.8827C56.1223 10.8827 55.519 10.6561 55.0723 10.2027C54.6323 9.7494 54.4123 9.1194 54.4123 8.31273C54.4123 7.7794 54.509 7.3194 54.7023 6.93273C54.9023 6.54607 55.179 6.24607 55.5323 6.03273C55.8857 5.81273 56.2957 5.70273 56.7623 5.70273C57.209 5.70273 57.5857 5.7994 57.8923 5.99273C58.199 6.1794 58.4357 6.4494 58.6023 6.80273C58.769 7.1494 58.8523 7.56273 58.8523 8.04273V8.32273H54.8523V7.88273H58.4723L58.3023 8.01273C58.3023 7.44607 58.1723 7.00273 57.9123 6.68273C57.6523 6.35607 57.2657 6.19273 56.7523 6.19273C56.2057 6.19273 55.779 6.38273 55.4723 6.76273C55.1657 7.13607 55.0123 7.63273 55.0123 8.25273V8.32273C55.0123 8.9894 55.1757 9.49607 55.5023 9.84273C55.8357 10.1894 56.299 10.3627 56.8923 10.3627C57.199 10.3627 57.4857 10.3161 57.7523 10.2227C58.019 10.1294 58.2757 9.9694 58.5223 9.74273L58.7723 10.1927C58.559 10.4127 58.2823 10.5827 57.9423 10.7027C57.6023 10.8227 57.249 10.8827 56.8823 10.8827ZM61.782 10.8827C61.3954 10.8827 61.032 10.8261 60.692 10.7127C60.3587 10.5994 60.082 10.4427 59.862 10.2427L60.102 9.79273C60.3487 9.99273 60.6154 10.1427 60.902 10.2427C61.1887 10.3361 61.4887 10.3827 61.802 10.3827C62.2287 10.3827 62.552 10.3027 62.772 10.1427C62.992 9.98273 63.102 9.76607 63.102 9.49273C63.102 9.2794 63.032 9.10607 62.892 8.97273C62.752 8.8394 62.5187 8.7394 62.192 8.67273L61.292 8.48273C60.8654 8.38273 60.5454 8.22273 60.332 8.00273C60.1254 7.78273 60.022 7.50607 60.022 7.17273C60.022 6.88607 60.0954 6.63273 60.242 6.41273C60.3954 6.19273 60.612 6.0194 60.892 5.89273C61.172 5.76607 61.502 5.70273 61.882 5.70273C62.242 5.70273 62.572 5.76273 62.872 5.88273C63.1787 5.99607 63.4287 6.1594 63.622 6.37273L63.362 6.81273C63.162 6.61273 62.9354 6.46273 62.682 6.36273C62.4354 6.26273 62.172 6.21273 61.892 6.21273C61.4787 6.21273 61.1654 6.2994 60.952 6.47273C60.7387 6.6394 60.632 6.86273 60.632 7.14273C60.632 7.35607 60.6987 7.53273 60.832 7.67273C60.9654 7.80607 61.1754 7.90607 61.462 7.97273L62.362 8.17273C62.8154 8.27273 63.152 8.42607 63.372 8.63273C63.592 8.8394 63.702 9.11273 63.702 9.45273C63.702 9.74607 63.622 10.0027 63.462 10.2227C63.302 10.4361 63.0787 10.5994 62.792 10.7127C62.5054 10.8261 62.1687 10.8827 61.782 10.8827ZM67.0034 10.8827C66.5501 10.8827 66.1568 10.7794 65.8234 10.5727C65.4901 10.3661 65.2334 10.0694 65.0534 9.68273C64.8734 9.29607 64.7834 8.83273 64.7834 8.29273C64.7834 7.75273 64.8734 7.29273 65.0534 6.91273C65.2401 6.52607 65.5001 6.2294 65.8334 6.02273C66.1668 5.8094 66.5568 5.70273 67.0034 5.70273C67.4634 5.70273 67.8601 5.82273 68.1934 6.06273C68.5334 6.30273 68.7568 6.6294 68.8634 7.04273H68.7434L68.8434 5.79273H69.4334C69.4134 5.98607 69.3934 6.17607 69.3734 6.36273C69.3601 6.5494 69.3534 6.73273 69.3534 6.91273V10.8027H68.7434V9.55273H68.8534C68.7468 9.96607 68.5234 10.2927 68.1834 10.5327C67.8501 10.7661 67.4568 10.8827 67.0034 10.8827ZM67.0834 10.3627C67.5968 10.3627 68.0034 10.1861 68.3034 9.83273C68.6034 9.4794 68.7534 8.96607 68.7534 8.29273C68.7534 7.6194 68.6034 7.10607 68.3034 6.75273C68.0034 6.3994 67.5968 6.22273 67.0834 6.22273C66.5701 6.22273 66.1601 6.3994 65.8534 6.75273C65.5534 7.10607 65.4034 7.6194 65.4034 8.29273C65.4034 8.96607 65.5534 9.4794 65.8534 9.83273C66.1601 10.1861 66.5701 10.3627 67.0834 10.3627ZM71.0016 10.8027V6.96273C71.0016 6.7694 70.995 6.57607 70.9816 6.38273C70.975 6.18273 70.9583 5.98607 70.9316 5.79273H71.5316L71.6116 6.94273L71.4916 6.95273C71.5583 6.67273 71.6783 6.44273 71.8516 6.26273C72.025 6.07607 72.225 5.93607 72.4516 5.84273C72.6783 5.7494 72.9116 5.70273 73.1516 5.70273C73.2383 5.70273 73.3183 5.7094 73.3916 5.72273C73.4716 5.7294 73.545 5.74273 73.6116 5.76273L73.5916 6.31273C73.5116 6.28607 73.4316 6.2694 73.3516 6.26273C73.2716 6.25607 73.185 6.25273 73.0916 6.25273C72.7916 6.25273 72.5283 6.32607 72.3016 6.47273C72.0816 6.6194 71.9116 6.80607 71.7916 7.03273C71.6716 7.2594 71.6116 7.4894 71.6116 7.72273V10.8027H71.0016ZM74.488 10.8027V6.96273C74.488 6.7694 74.4813 6.57607 74.468 6.38273C74.4613 6.18273 74.4446 5.98607 74.418 5.79273H75.018L75.098 6.94273L74.978 6.95273C75.0446 6.67273 75.1646 6.44273 75.338 6.26273C75.5113 6.07607 75.7113 5.93607 75.938 5.84273C76.1646 5.7494 76.398 5.70273 76.638 5.70273C76.7246 5.70273 76.8046 5.7094 76.878 5.72273C76.958 5.7294 77.0313 5.74273 77.098 5.76273L77.078 6.31273C76.998 6.28607 76.918 6.2694 76.838 6.26273C76.758 6.25607 76.6713 6.25273 76.578 6.25273C76.278 6.25273 76.0146 6.32607 75.788 6.47273C75.568 6.6194 75.398 6.80607 75.278 7.03273C75.158 7.2594 75.098 7.4894 75.098 7.72273V10.8027H74.488ZM79.9057 10.8827C79.4324 10.8827 79.0224 10.7794 78.6757 10.5727C78.3357 10.3661 78.0724 10.0694 77.8857 9.68273C77.699 9.29607 77.6057 8.83273 77.6057 8.29273C77.6057 7.7594 77.699 7.2994 77.8857 6.91273C78.0724 6.52607 78.3357 6.2294 78.6757 6.02273C79.0224 5.8094 79.4324 5.70273 79.9057 5.70273C80.3724 5.70273 80.7757 5.8094 81.1157 6.02273C81.4624 6.2294 81.729 6.52607 81.9157 6.91273C82.109 7.2994 82.2057 7.7594 82.2057 8.29273C82.2057 8.83273 82.109 9.29607 81.9157 9.68273C81.729 10.0694 81.4624 10.3661 81.1157 10.5727C80.7757 10.7794 80.3724 10.8827 79.9057 10.8827ZM79.9057 10.3627C80.4124 10.3627 80.819 10.1861 81.1257 9.83273C81.4324 9.4794 81.5857 8.96607 81.5857 8.29273C81.5857 7.6194 81.4324 7.10607 81.1257 6.75273C80.819 6.3994 80.4124 6.22273 79.9057 6.22273C79.3924 6.22273 78.9824 6.3994 78.6757 6.75273C78.3757 7.10607 78.2257 7.6194 78.2257 8.29273C78.2257 8.96607 78.3757 9.4794 78.6757 9.83273C78.9824 10.1861 79.3924 10.3627 79.9057 10.3627ZM83.5409 10.8027V3.44273H84.1509V10.8027H83.5409ZM85.8163 10.8027V3.44273H86.4263V10.8027H85.8163ZM89.9917 10.8827C89.5384 10.8827 89.1451 10.7794 88.8117 10.5727C88.4784 10.3661 88.2217 10.0694 88.0417 9.68273C87.8617 9.29607 87.7717 8.83273 87.7717 8.29273C87.7717 7.75273 87.8617 7.29273 88.0417 6.91273C88.2284 6.52607 88.4884 6.2294 88.8217 6.02273C89.1551 5.8094 89.5451 5.70273 89.9917 5.70273C90.4517 5.70273 90.8484 5.82273 91.1817 6.06273C91.5217 6.30273 91.7451 6.6294 91.8517 7.04273H91.7317L91.8317 5.79273H92.4217C92.4017 5.98607 92.3817 6.17607 92.3617 6.36273C92.3484 6.5494 92.3417 6.73273 92.3417 6.91273V10.8027H91.7317V9.55273H91.8417C91.7351 9.96607 91.5117 10.2927 91.1717 10.5327C90.8384 10.7661 90.4451 10.8827 89.9917 10.8827ZM90.0717 10.3627C90.5851 10.3627 90.9917 10.1861 91.2917 9.83273C91.5917 9.4794 91.7417 8.96607 91.7417 8.29273C91.7417 7.6194 91.5917 7.10607 91.2917 6.75273C90.9917 6.3994 90.5851 6.22273 90.0717 6.22273C89.5584 6.22273 89.1484 6.3994 88.8417 6.75273C88.5417 7.10607 88.3917 7.6194 88.3917 8.29273C88.3917 8.96607 88.5417 9.4794 88.8417 9.83273C89.1484 10.1861 89.5584 10.3627 90.0717 10.3627ZM95.8899 10.8827C95.4433 10.8827 95.0533 10.7794 94.7199 10.5727C94.3866 10.3661 94.1299 10.0694 93.9499 9.68273C93.7699 9.29607 93.6799 8.83273 93.6799 8.29273C93.6799 7.75273 93.7699 7.29273 93.9499 6.91273C94.1299 6.52607 94.3866 6.2294 94.7199 6.02273C95.0533 5.8094 95.4433 5.70273 95.8899 5.70273C96.3499 5.70273 96.7466 5.82273 97.0799 6.06273C97.4199 6.29607 97.6466 6.6194 97.7599 7.03273H97.6399V3.44273H98.2499V10.8027H97.6499V9.54273H97.7599C97.6466 9.96273 97.4199 10.2927 97.0799 10.5327C96.7466 10.7661 96.3499 10.8827 95.8899 10.8827ZM95.9699 10.3627C96.4766 10.3627 96.8833 10.1861 97.1899 9.83273C97.5033 9.4794 97.6599 8.96607 97.6599 8.29273C97.6599 7.6194 97.5033 7.10607 97.1899 6.75273C96.8833 6.3994 96.4766 6.22273 95.9699 6.22273C95.4633 6.22273 95.0566 6.3994 94.7499 6.75273C94.4499 7.10607 94.2999 7.6194 94.2999 8.29273C94.2999 8.96607 94.4499 9.4794 94.7499 9.83273C95.0566 10.1861 95.4633 10.3627 95.9699 10.3627ZM101.888 10.8827C101.415 10.8827 101.005 10.7794 100.658 10.5727C100.318 10.3661 100.055 10.0694 99.8681 9.68273C99.6815 9.29607 99.5881 8.83273 99.5881 8.29273C99.5881 7.7594 99.6815 7.2994 99.8681 6.91273C100.055 6.52607 100.318 6.2294 100.658 6.02273C101.005 5.8094 101.415 5.70273 101.888 5.70273C102.355 5.70273 102.758 5.8094 103.098 6.02273C103.445 6.2294 103.711 6.52607 103.898 6.91273C104.091 7.2994 104.188 7.7594 104.188 8.29273C104.188 8.83273 104.091 9.29607 103.898 9.68273C103.711 10.0694 103.445 10.3661 103.098 10.5727C102.758 10.7794 102.355 10.8827 101.888 10.8827ZM101.888 10.3627C102.395 10.3627 102.801 10.1861 103.108 9.83273C103.415 9.4794 103.568 8.96607 103.568 8.29273C103.568 7.6194 103.415 7.10607 103.108 6.75273C102.801 6.3994 102.395 6.22273 101.888 6.22273C101.375 6.22273 100.965 6.3994 100.658 6.75273C100.358 7.10607 100.208 7.6194 100.208 8.29273C100.208 8.96607 100.358 9.4794 100.658 9.83273C100.965 10.1861 101.375 10.3627 101.888 10.3627ZM108.072 12.9627V6.91273C108.072 6.73273 108.066 6.5494 108.052 6.36273C108.039 6.17607 108.019 5.98607 107.992 5.79273H108.592L108.692 7.04273H108.572C108.686 6.6294 108.906 6.30273 109.232 6.06273C109.559 5.82273 109.956 5.70273 110.422 5.70273C110.876 5.70273 111.266 5.8094 111.592 6.02273C111.926 6.2294 112.186 6.52607 112.372 6.91273C112.559 7.29273 112.652 7.75273 112.652 8.29273C112.652 8.83273 112.559 9.29607 112.372 9.68273C112.192 10.0694 111.936 10.3661 111.602 10.5727C111.269 10.7794 110.876 10.8827 110.422 10.8827C109.962 10.8827 109.566 10.7661 109.232 10.5327C108.906 10.2927 108.686 9.96607 108.572 9.55273H108.682V12.9627H108.072ZM110.342 10.3627C110.856 10.3627 111.266 10.1861 111.572 9.83273C111.879 9.4794 112.032 8.96607 112.032 8.29273C112.032 7.6194 111.879 7.10607 111.572 6.75273C111.266 6.3994 110.856 6.22273 110.342 6.22273C109.836 6.22273 109.429 6.3994 109.122 6.75273C108.822 7.10607 108.672 7.6194 108.672 8.29273C108.672 8.96607 108.822 9.4794 109.122 9.83273C109.429 10.1861 109.836 10.3627 110.342 10.3627ZM115.96 10.8827C115.487 10.8827 115.077 10.7794 114.73 10.5727C114.39 10.3661 114.127 10.0694 113.94 9.68273C113.754 9.29607 113.66 8.83273 113.66 8.29273C113.66 7.7594 113.754 7.2994 113.94 6.91273C114.127 6.52607 114.39 6.2294 114.73 6.02273C115.077 5.8094 115.487 5.70273 115.96 5.70273C116.427 5.70273 116.83 5.8094 117.17 6.02273C117.517 6.2294 117.784 6.52607 117.97 6.91273C118.164 7.2994 118.26 7.7594 118.26 8.29273C118.26 8.83273 118.164 9.29607 117.97 9.68273C117.784 10.0694 117.517 10.3661 117.17 10.5727C116.83 10.7794 116.427 10.8827 115.96 10.8827ZM115.96 10.3627C116.467 10.3627 116.874 10.1861 117.18 9.83273C117.487 9.4794 117.64 8.96607 117.64 8.29273C117.64 7.6194 117.487 7.10607 117.18 6.75273C116.874 6.3994 116.467 6.22273 115.96 6.22273C115.447 6.22273 115.037 6.3994 114.73 6.75273C114.43 7.10607 114.28 7.6194 114.28 8.29273C114.28 8.96607 114.43 9.4794 114.73 9.83273C115.037 10.1861 115.447 10.3627 115.96 10.3627ZM119.586 10.8027V6.96273C119.586 6.7694 119.579 6.57607 119.566 6.38273C119.559 6.18273 119.542 5.98607 119.516 5.79273H120.116L120.196 6.94273L120.076 6.95273C120.142 6.67273 120.262 6.44273 120.436 6.26273C120.609 6.07607 120.809 5.93607 121.036 5.84273C121.262 5.7494 121.496 5.70273 121.736 5.70273C121.822 5.70273 121.902 5.7094 121.976 5.72273C122.056 5.7294 122.129 5.74273 122.196 5.76273L122.176 6.31273C122.096 6.28607 122.016 6.2694 121.936 6.26273C121.856 6.25607 121.769 6.25273 121.676 6.25273C121.376 6.25273 121.112 6.32607 120.886 6.47273C120.666 6.6194 120.496 6.80607 120.376 7.03273C120.256 7.2594 120.196 7.4894 120.196 7.72273V10.8027H119.586ZM123.029 6.64273V5.79273H123.879V6.64273H123.029ZM123.029 10.8027V9.94273H123.879V10.8027H123.029Z" fill="#8F90A6"/>
<path fill-rule="evenodd" clip-rule="evenodd" d="M38.0823 20.8286C38.9589 20.8027 40.2995 20.9321 41.0471 21.0873C42.001 21.3201 42.6198 21.6564 43.2385 22.2514C43.9861 23.0533 44.0635 23.2603 44.0635 24.8124C44.0635 25.8213 43.8572 27.1406 43.5221 28.1236C43.2385 29.0031 42.4135 30.8398 41.7432 32.185C41.0471 33.5302 39.5003 36.0912 38.3401 37.8761C37.1542 39.6611 35.1433 42.5066 33.8543 44.214C32.5652 45.9213 30.3739 48.7151 29.0075 50.4225C27.6153 52.1298 24.7021 55.5703 22.5365 58.0537C20.3451 60.5371 17.9475 63.2792 17.1741 64.1329C16.4265 64.9866 15.7304 65.5816 15.6272 65.4263C15.5241 65.2711 16.3491 64.0553 17.4319 62.7101C18.5147 61.3649 20.7834 58.39 22.4849 56.1136C24.1865 53.8371 26.8677 49.9827 28.4919 47.5769C30.0903 45.1711 32.1012 41.8858 32.952 40.3336C33.8285 38.7815 34.8855 36.5568 35.3238 35.4186C35.7621 34.2804 36.2519 32.6506 36.4066 31.797C36.6128 30.5035 36.587 30.0896 36.2261 29.2618C35.9425 28.5892 35.53 28.1753 34.8597 27.8908C34.2152 27.6062 33.184 27.4769 31.8176 27.4769C30.6832 27.4769 28.3114 27.7873 26.5325 28.1495C24.7537 28.5116 21.7373 29.2877 19.8295 29.8827C17.9217 30.4776 15.7819 30.9692 15.1116 30.995C14.132 31.0209 13.771 30.9174 13.4874 30.5035C13.2812 30.219 13.1265 29.8051 13.1265 29.5981C13.1265 29.3912 13.3585 28.822 13.6421 28.3564C13.9257 27.9166 14.6991 27.1664 15.3952 26.7525C16.0655 26.3128 18.5147 25.3298 20.8608 24.5796C23.2068 23.8035 26.6099 22.8205 28.4661 22.3549C30.3223 21.9151 32.8746 21.3718 34.1379 21.1908C35.4269 21.0097 37.18 20.8545 38.0823 20.8286ZM52.0813 20.8027C52.2102 20.8027 52.4165 21.0356 52.5712 21.3201C52.7258 21.6564 52.8032 29.5464 52.7774 43.8001C52.7001 65.7368 52.7001 65.7885 52.1587 66.5128C51.8493 66.9009 51.2821 67.47 50.9212 67.7545C50.2251 68.246 49.761 68.2719 36.5097 68.3236C28.7755 68.3754 22.6138 68.2978 22.4076 68.1684C22.0982 67.9873 22.3045 67.5734 23.5935 66.0472C24.4443 64.9866 26.1458 62.7877 27.3575 61.158C28.5692 59.5283 31.1215 55.8032 33.0293 52.88C34.9629 49.9568 37.7472 45.5333 39.2167 43.0499C40.712 40.5665 43.0323 36.5309 44.3729 34.1251C45.7392 31.6935 47.8017 27.8649 48.9876 25.5885C50.1735 23.312 51.3079 21.3201 51.4884 21.139C51.6688 20.9579 51.9524 20.8027 52.0813 20.8027ZM61.3366 20.9321C61.9038 21.0097 62.5225 21.3718 63.0382 21.8892C63.4764 22.3549 66.467 25.5626 69.6638 29.0031C72.8864 32.4695 75.5934 35.2892 75.7223 35.2892C75.8254 35.3151 78.4293 32.5989 81.5488 29.2877C84.6425 25.9765 87.762 22.717 88.4323 22.0186C89.2572 21.2166 89.9276 20.8027 90.34 20.8027C90.701 20.8027 91.2939 20.9579 91.6549 21.1132C92.0416 21.2942 92.5056 21.7599 92.6861 22.1479C92.9955 22.7429 93.047 25.873 93.047 39.4282C93.047 53.6302 92.9955 56.0877 92.6603 56.7603C92.4541 57.2001 92.0416 57.6398 91.758 57.7951C91.4744 57.9503 90.8557 58.0537 90.4174 58.0537C89.8244 58.0537 89.3604 57.8468 88.2776 56.7086L88.0198 30.3742L83.7659 34.9012C81.4199 37.4105 78.9449 40.075 78.2231 40.851C77.0629 42.1186 76.8309 42.2479 75.8512 42.2738C74.7684 42.2738 74.6653 42.1962 71.9583 39.3506C70.4115 37.7726 67.885 35.1082 63.528 30.4259L63.2702 56.7086L62.6257 57.3812C62.1616 57.8985 61.7233 58.0537 61.0273 58.0537C60.357 58.0537 59.8156 57.8468 58.6296 56.812L58.5523 39.8939C58.5007 26.6749 58.5523 22.8464 58.8101 22.2514C58.9906 21.8375 59.4288 21.346 59.7898 21.1649C60.1507 20.9579 60.821 20.8545 61.3366 20.9321ZM107.226 20.8286C113.723 20.8027 116.791 20.9062 117.797 21.139C118.57 21.3201 119.73 21.7599 120.375 22.1479C121.019 22.5101 122.179 23.4931 122.953 24.3209C123.752 25.1746 124.68 26.4939 125.067 27.2699C125.454 28.046 125.866 29.2101 126.021 29.8568C126.175 30.5294 126.304 34.5649 126.304 39.5576C126.304 47.3441 126.278 48.2495 125.814 49.7757C125.531 50.707 124.861 52.1557 124.293 53.0093C123.752 53.863 122.798 55.0012 122.154 55.5703C121.535 56.1136 120.375 56.8638 118.183 57.9244L97.6876 58.0537L96.9141 57.2777C96.2696 56.631 96.1407 56.2947 96.1407 55.2082C96.1407 54.1993 96.2954 53.7595 97.3782 52.492L117.204 52.2333L118.261 51.5348C118.854 51.1209 119.704 50.319 120.117 49.724C120.555 49.1032 121.019 48.0425 121.174 47.3182C121.354 46.5163 121.406 43.2051 121.354 38.6522C121.277 32.0556 121.225 31.1761 120.787 30.3742C120.529 29.8827 119.885 29.029 119.369 28.4858C118.854 27.9425 118.08 27.2958 117.668 27.063C116.997 26.6749 115.683 26.6232 97.4298 26.4939L96.7852 25.7178C96.3212 25.1487 96.1407 24.6572 96.1407 23.8552C96.1665 23.2344 96.347 22.4583 96.5532 22.122C96.7852 21.7857 97.2235 21.346 97.5071 21.1649C97.9454 20.9062 100.085 20.8286 107.226 20.8286ZM144.995 20.8803C154.431 20.9321 154.844 20.9579 155.823 21.4753C156.39 21.7857 157.241 22.4842 157.731 23.0274C158.221 23.5966 158.84 24.5537 159.123 25.2004C159.458 25.9247 159.69 27.1664 159.768 28.434C159.845 30.012 159.794 30.6846 159.458 31.2796C159.252 31.7193 158.762 32.2109 158.401 32.3919C158.04 32.5471 157.473 32.7024 157.112 32.7024C156.751 32.7024 156.158 32.4437 155.798 32.1332C155.23 31.6417 155.076 31.2278 154.895 29.5981C154.715 27.9942 154.56 27.5545 154.019 27.0888C153.374 26.4939 153.323 26.4939 135.817 26.4939L135.199 27.1406C134.838 27.5027 134.554 28.0719 134.554 28.434C134.554 28.7962 134.451 29.3653 134.296 29.7275C134.142 30.0896 133.781 30.607 133.471 30.8915C133.085 31.2278 132.517 31.4089 131.924 31.4089C131.228 31.4089 130.764 31.2278 130.3 30.7622C129.939 30.4 129.578 29.6757 129.501 29.1583C129.398 28.6151 129.475 27.5286 129.63 26.7525C129.785 25.9765 130.249 24.8124 130.635 24.1915C131.022 23.5707 131.744 22.717 132.234 22.3031C132.724 21.9151 133.6 21.3977 134.167 21.1908C135.018 20.8803 136.9 20.8286 144.995 20.8803ZM24.9857 33.8406C26.6872 33.9182 26.9966 34.0217 27.5122 34.6167C27.8474 35.0047 28.0794 35.6255 28.0794 36.1429C28.0794 36.5827 27.8474 37.6692 27.5638 38.5228C27.2802 39.3765 26.4552 41.1356 25.7333 42.4031C25.0115 43.6966 23.6451 45.8437 22.717 47.1889C21.7631 48.534 19.8553 51.095 18.4374 52.88C17.0194 54.6649 15.3437 56.6827 14.6991 57.3553C13.9515 58.1313 13.307 58.597 12.946 58.5711C12.6109 58.5711 12.3015 58.4676 12.2242 58.3124C12.1468 58.1831 12.2242 57.5105 12.4046 56.8379C12.6109 56.036 13.6421 54.1993 15.3952 51.5866C16.8905 49.3877 18.4889 46.775 18.9788 45.7661C19.4428 44.7831 19.9069 43.5414 20.01 43.0499C20.1131 42.4031 20.0358 41.9375 19.7522 41.446C19.4686 40.9804 18.953 40.6441 18.36 40.463C17.7413 40.3078 16.9163 40.3078 16.0913 40.4889C15.3952 40.6182 14.3898 40.6441 13.8999 40.5665C13.4101 40.463 12.7914 40.2043 12.5336 39.9715C12.1984 39.6869 12.1211 39.3506 12.2242 38.9109C12.3273 38.5487 12.6882 37.9279 13.0749 37.5398C13.4617 37.1259 14.2866 36.5309 14.9312 36.1946C15.5757 35.8842 17.071 35.3151 18.2827 34.9529C19.4944 34.5649 21.067 34.151 21.7631 34.0217C22.4849 33.8923 23.9287 33.8147 24.9857 33.8406ZM131.924 36.5827C132.311 36.5827 132.904 36.7896 133.239 37.0224C133.6 37.2811 134.039 37.8761 134.219 38.3418C134.451 38.9367 134.554 40.8252 134.554 45.197C134.554 51.0433 134.58 51.2244 135.714 52.3885L144.531 52.3626C149.894 52.3626 153.58 52.2591 153.89 52.1039C154.173 51.9746 154.534 51.4572 154.663 51.0174C154.818 50.5518 154.921 48.3788 154.921 42.2738H152.137C149.868 42.2997 149.275 42.2221 148.759 41.834C148.218 41.4201 148.141 41.1614 148.141 39.5576C148.141 37.9279 148.218 37.695 148.837 37.1777C149.481 36.6085 149.713 36.5827 158.015 36.5827L159.819 38.3935V45.0676C159.819 50.2672 159.742 52.0005 159.433 53.0093C159.226 53.7337 158.659 54.8201 158.195 55.4669C157.654 56.2171 156.855 56.8896 154.534 58.0537H144.609C135.56 58.0537 134.58 58.002 133.652 57.5622C133.085 57.3036 132.157 56.5792 131.564 55.9584C130.996 55.3375 130.3 54.251 130.017 53.5267C129.578 52.3626 129.527 51.5348 129.527 38.0831L130.378 37.3329C130.867 36.8931 131.512 36.5827 131.924 36.5827ZM60.4085 62.7619C60.6663 63.0981 60.9757 63.5379 61.1046 63.7449C61.3108 64.0812 61.3882 64.0553 61.7233 63.6155C61.9554 63.331 62.2905 62.8653 62.4968 62.5808C62.8061 62.141 62.9093 62.1151 63.1155 62.4514C63.2702 62.6584 63.3991 63.8483 63.3991 65.1159C63.3991 66.487 63.296 67.4441 63.1155 67.5734C62.9608 67.6769 62.7288 67.5734 62.5999 67.3665C62.471 67.1595 62.3679 66.4094 62.3679 65.685C62.3679 64.3916 62.3679 64.3916 61.4655 65.6074L60.2796 64.1329L60.3054 65.8144C60.3054 67.1337 60.2281 67.4958 59.9187 67.4958C59.6093 67.4958 59.532 67.0302 59.4804 65.0124C59.4546 63.6414 59.5578 62.4514 59.6867 62.348C59.8156 62.2445 60.1249 62.4256 60.4085 62.7619ZM67.5756 62.1927C67.6787 62.1927 68.1943 62.9171 69.5607 65.4263L69.5865 63.9518C69.5865 62.7877 69.6638 62.4514 69.9732 62.4514C70.2826 62.4514 70.3599 62.8653 70.2826 64.909C70.2568 66.3059 70.1279 67.3924 69.9732 67.4182C69.8185 67.4182 69.2771 66.6939 67.7818 64.1329V65.7626C67.7818 67.0043 67.7045 67.3665 67.3951 67.3665C67.0858 67.3665 67.0084 66.9009 66.9568 64.9607C66.9311 63.6155 67.0084 62.4514 67.1373 62.3738C67.2662 62.2703 67.4467 62.1927 67.5756 62.1927ZM73.5052 62.1927C74.4848 62.1927 74.7942 62.2962 75.0005 62.7101C75.1294 62.9947 75.2583 64.0553 75.2583 65.0383C75.2583 66.5128 75.1551 66.9526 74.7426 67.3665C74.4333 67.6769 73.8661 67.8839 73.3763 67.8839C72.938 67.8839 72.3966 67.7545 72.2161 67.5734C72.0099 67.3665 71.881 66.3835 71.8552 64.8831C71.8294 63.5897 71.9068 62.4514 72.0357 62.3738C72.1646 62.2703 72.8091 62.1927 73.5052 62.1927ZM72.6802 66.5904H74.4848V63.2275H72.6802V66.5904ZM78.8934 62.1927C79.9762 62.1927 80.1566 62.2704 80.1566 62.7101C80.1566 63.1499 79.9762 63.2275 78.9965 63.2275C78.352 63.2275 77.7848 63.331 77.7074 63.4862C77.6301 63.6414 77.6301 63.9259 77.7074 64.1329C77.7848 64.3657 78.1457 64.5209 78.6613 64.5209C79.1254 64.5209 79.6668 64.6503 79.8472 64.8314C80.0277 65.0124 80.1566 65.5816 80.1566 66.0731C80.1566 66.5646 79.9504 67.1854 79.6926 67.4441C79.4348 67.7028 78.8676 67.9097 78.352 67.9097C77.8621 67.9097 77.295 67.7545 77.1403 67.5734C76.8825 67.3148 76.8825 67.1595 77.1145 66.9267C77.295 66.7456 77.8621 66.5904 78.4035 66.5904C79.2027 66.5904 79.3832 66.487 79.3832 66.0731C79.3832 65.685 79.2027 65.5557 78.6613 65.5557C78.2746 65.5557 77.7332 65.4005 77.4496 65.1935C77.1059 64.9521 76.934 64.5296 76.934 63.9259C76.934 63.4344 77.0887 62.8653 77.295 62.6325C77.527 62.3221 78.0426 62.1927 78.8934 62.1927ZM85.8284 62.1927C87.0659 62.1927 87.1432 62.2186 87.5299 63.1758C87.8135 63.8225 87.9166 64.5727 87.8135 65.5557C87.7104 66.668 87.5557 67.0819 87.0917 67.4441C86.6792 67.7545 86.1636 67.8839 85.5706 67.8321C84.8745 67.7804 84.6683 67.6511 84.6683 67.2372C84.6683 66.8232 84.8745 66.6939 85.6995 66.6422C86.2667 66.5904 86.8081 66.4094 86.9112 66.2541C87.0143 66.0731 87.1174 65.5039 87.1174 64.9866C87.1174 64.4433 87.0659 63.8225 86.9885 63.6155C86.9112 63.3568 86.4987 63.2275 85.6995 63.2275C84.7198 63.2275 84.5394 63.1499 84.5394 62.7101C84.5394 62.2704 84.7198 62.1927 85.8284 62.1927ZM89.4119 62.1927H90.9072C91.7322 62.1927 92.4799 62.2703 92.583 62.3738C92.6861 62.5032 92.7119 62.736 92.6345 62.9171C92.583 63.0982 92.0674 63.2275 91.3713 63.2275C90.3143 63.2275 90.2111 63.2792 90.2111 63.8742C90.2111 64.4692 90.3143 64.5209 91.2939 64.5209C91.9127 64.5209 92.4799 64.5985 92.583 64.702C92.6861 64.8314 92.7119 65.0642 92.6345 65.2453C92.583 65.4263 92.0674 65.5557 91.3713 65.5557C90.3916 65.5557 90.2111 65.6333 90.2111 66.0731C90.2111 66.5128 90.3916 66.5904 91.165 66.5904C91.7064 66.5646 92.2994 66.7198 92.4798 66.9009C92.7377 67.1595 92.7377 67.2889 92.4798 67.5734C92.2736 67.7545 91.6291 67.858 89.5666 67.7545L89.4119 62.1927ZM97.172 62.1927C97.3009 62.1927 97.4555 62.2962 97.5071 62.3997C97.5587 62.5032 97.3266 63.6414 96.9657 64.909C96.6306 66.2024 96.2438 67.3406 96.1149 67.4958C95.986 67.6511 95.8314 67.7028 95.754 67.6252C95.7025 67.5476 95.3415 66.5128 94.9806 65.297C94.6197 64.0812 94.3361 62.9429 94.3361 62.7877C94.3361 62.6066 94.465 62.4514 94.6454 62.4514C94.8259 62.4514 95.1868 63.1758 95.4446 64.0553C95.8829 65.5039 95.9603 65.6074 96.1407 65.0383C96.2696 64.6761 96.4759 63.9001 96.6306 63.3051C96.7852 62.6842 97.0431 62.1927 97.172 62.1927ZM99.2344 62.1669L100.833 62.2445C102.07 62.2962 102.457 62.4256 102.457 62.7101C102.457 62.9947 102.122 63.124 101.22 63.1758C100.111 63.2275 100.008 63.2792 100.008 63.8742C100.008 64.4692 100.085 64.5209 101.297 64.5209C102.38 64.5209 102.56 64.5985 102.509 64.9866C102.457 65.3229 102.148 65.4522 101.22 65.5039C100.188 65.5557 100.008 65.6333 100.008 66.0731C100.008 66.487 100.163 66.5904 100.91 66.5904C101.4 66.5904 101.967 66.6422 102.199 66.7198C102.405 66.7974 102.586 67.0302 102.586 67.2372C102.586 67.4441 102.328 67.7028 101.993 67.7804C101.684 67.858 100.962 67.8839 99.3633 67.7545L99.2344 62.1669ZM110.604 62.1927C111.583 62.1927 111.893 62.2962 112.099 62.7101C112.254 62.9947 112.357 64.0036 112.357 64.9607C112.383 66.0989 112.228 66.9267 111.97 67.2889C111.712 67.6855 111.326 67.8839 110.81 67.8839C110.398 67.8839 109.805 67.7545 109.521 67.6252C109.083 67.3924 109.005 67.0819 108.98 64.9607C108.954 63.6155 109.031 62.4514 109.134 62.3738C109.263 62.2703 109.908 62.1927 110.604 62.1927ZM109.779 66.5904H111.583V63.2275H109.779V66.5904ZM113.904 62.1927H115.141C115.966 62.1669 116.482 62.2962 116.74 62.6066C116.972 62.8395 117.126 63.4344 117.126 63.9259C117.126 64.5296 116.954 64.9521 116.611 65.1935C116.327 65.4005 115.786 65.5557 115.399 65.5557C114.754 65.5557 114.677 65.6333 114.677 66.4611C114.677 67.0819 114.574 67.3665 114.29 67.3665C113.981 67.3665 113.904 66.9009 113.904 64.7796V62.1927ZM115.451 64.5209C115.94 64.5209 116.301 64.3657 116.379 64.107C116.456 63.8742 116.456 63.5897 116.379 63.4603C116.301 63.331 115.889 63.2275 115.451 63.2275C114.806 63.2275 114.677 63.331 114.677 63.8742C114.677 64.4175 114.806 64.5209 115.451 64.5209ZM118.802 62.1927H120.297C121.097 62.1927 121.87 62.2703 121.947 62.3738C122.05 62.4773 122.076 62.736 122.025 62.8912C121.947 63.0981 121.432 63.2275 120.736 63.2275C119.679 63.2275 119.575 63.2792 119.575 63.8742C119.575 64.4692 119.679 64.5209 120.684 64.5209C121.277 64.5209 121.87 64.5985 121.947 64.702C122.05 64.8055 122.076 65.0642 122.025 65.2194C121.947 65.4263 121.432 65.5557 120.736 65.5557C119.756 65.5557 119.575 65.6333 119.575 66.0731C119.575 66.487 119.756 66.5904 120.555 66.5904C121.097 66.5646 121.664 66.7198 121.844 66.9009C122.102 67.1595 122.102 67.2889 121.844 67.5734C121.638 67.7545 121.019 67.858 118.931 67.7545L118.802 62.1927ZM123.726 62.1927H124.964C125.634 62.1669 126.33 62.3221 126.511 62.5032C126.691 62.7101 126.871 63.7707 126.949 65.09C127.052 67.0043 127.026 67.3665 126.691 67.3665C126.485 67.3665 126.304 67.1337 126.304 66.8491C126.304 66.5646 126.253 66.1507 126.175 65.9437C126.098 65.7109 125.737 65.5557 125.273 65.5557C124.551 65.5557 124.5 65.6333 124.5 66.4611C124.5 67.0819 124.396 67.3665 124.113 67.3665C123.804 67.3665 123.726 66.9009 123.726 64.7796V62.1927ZM125.273 64.5209C125.737 64.5209 126.098 64.3657 126.201 64.107C126.278 63.8742 126.278 63.5897 126.201 63.4603C126.124 63.331 125.711 63.2275 125.273 63.2275C124.629 63.2275 124.5 63.331 124.5 63.8742C124.5 64.4175 124.629 64.5209 125.273 64.5209ZM130.378 62.1927C131.048 62.1927 131.667 62.2703 131.77 62.3738C131.873 62.4773 131.899 62.736 131.847 62.8912C131.77 63.0981 131.254 63.2275 130.558 63.2275C129.501 63.2275 129.398 63.2792 129.398 63.8742C129.398 64.4433 129.501 64.5209 130.429 64.5209C131.357 64.5209 131.486 64.5985 131.718 65.3487C131.924 65.9954 131.924 66.3835 131.667 66.9267C131.486 67.3406 131.1 67.7287 130.816 67.7804C130.532 67.858 129.965 67.8839 129.527 67.8321C128.96 67.7804 128.753 67.6252 128.753 67.2372C128.753 66.8232 128.96 66.6939 129.914 66.5904C130.713 66.5128 131.074 66.3317 131.074 66.0731C131.074 65.8402 130.739 65.6333 130.094 65.5557C129.578 65.4781 129.011 65.2453 128.882 65.0383C128.753 64.8314 128.625 64.314 128.599 63.9259C128.599 63.5121 128.702 62.9688 128.857 62.6842C129.089 62.3221 129.45 62.1927 130.378 62.1927ZM137.674 62.1927C138.679 62.1927 138.988 62.2962 139.195 62.7101C139.349 62.9947 139.452 63.331 139.452 63.4862C139.452 63.6155 139.272 63.7449 139.066 63.7449C138.86 63.7449 138.679 63.6155 138.679 63.4862C138.679 63.331 138.267 63.2275 137.777 63.2275C137.287 63.2275 136.874 63.331 136.874 63.4862C136.874 63.6155 136.694 63.7449 136.488 63.7449C136.281 63.7449 136.101 63.5638 136.101 63.3568C136.101 63.1499 136.178 62.7877 136.256 62.5808C136.359 62.2962 136.771 62.1927 137.674 62.1927ZM140.999 62.1927H142.417C143.526 62.1927 143.861 62.2962 144.016 62.6325C144.093 62.8912 144.222 64.107 144.273 65.3487C144.325 67.0819 144.273 67.5993 144.041 67.5476C143.861 67.5217 143.655 67.0819 143.577 66.5904C143.474 65.7885 143.345 65.685 142.624 65.6074C141.799 65.5557 141.773 65.5816 141.773 66.5128C141.773 67.2113 141.67 67.4958 141.386 67.4958C141.077 67.4958 140.999 67.0302 140.999 64.8314V62.1927ZM142.624 64.4692C143.268 64.4175 143.449 64.2881 143.449 63.8742C143.449 63.4862 143.242 63.3568 142.624 63.2792C141.902 63.2275 141.799 63.2792 141.799 63.8742C141.773 64.4692 141.876 64.5209 142.624 64.4692ZM147.47 62.1927C148.476 62.1927 148.785 62.3221 148.991 62.7101C149.146 62.9947 149.249 64.107 149.249 65.1676C149.249 66.6163 149.146 67.2113 148.837 67.4958C148.63 67.7287 148.037 67.8839 147.548 67.8839C147.058 67.8839 146.491 67.7287 146.284 67.4958C146.001 67.2372 145.898 66.5387 145.898 65.0383C145.898 63.9001 145.975 62.8136 146.052 62.5808C146.155 62.3221 146.568 62.1927 147.47 62.1927ZM146.671 66.5904H148.476V63.2275H146.671V66.5904ZM155.694 62.1927H157.061C158.247 62.1927 158.453 62.2704 158.737 62.8395C158.891 63.2016 159.046 63.6931 159.046 63.9518C159.046 64.2105 158.865 64.6761 158.659 64.9866C158.376 65.4005 158.015 65.5557 157.37 65.5557C156.494 65.5557 156.468 65.6074 156.468 66.5387C156.468 67.2372 156.365 67.4958 156.081 67.4958C155.772 67.4958 155.694 67.0302 155.694 64.8572V62.1927ZM157.319 64.4433C157.963 64.4175 158.144 64.2622 158.144 63.8742C158.144 63.4862 157.937 63.331 157.319 63.2792C156.597 63.2016 156.494 63.2792 156.494 63.8483C156.468 64.4433 156.571 64.5209 157.319 64.4433ZM65.0748 62.4514C65.3842 62.4514 65.4616 62.8912 65.4616 64.909C65.4616 66.9267 65.3842 67.3665 65.0748 67.3665C64.7655 67.3665 64.6881 66.9267 64.6881 64.909C64.6881 62.8912 64.7655 62.4514 65.0748 62.4514ZM104.519 62.4514C104.829 62.4514 104.906 62.8395 104.906 66.5904H105.809C106.298 66.5904 106.891 66.6422 107.098 66.7198C107.304 66.7974 107.484 67.0302 107.484 67.2372C107.484 67.4441 107.226 67.6769 106.917 67.7804C106.582 67.858 105.86 67.8839 104.262 67.7545L104.184 65.09C104.133 62.8653 104.184 62.4514 104.519 62.4514ZM151.183 62.4514C151.492 62.4514 151.569 62.8653 151.569 66.5904L153.245 66.4611L153.297 64.4433C153.348 62.8395 153.426 62.4514 153.761 62.4514C154.07 62.4514 154.148 62.8136 154.148 64.3916C154.148 65.4522 153.993 66.6163 153.838 66.9785C153.658 67.3406 153.271 67.7028 152.987 67.7804C152.704 67.858 152.214 67.858 151.905 67.7804C151.569 67.7028 151.209 67.3406 151.054 66.9785C150.925 66.6163 150.796 65.4522 150.796 64.3916C150.796 62.8395 150.873 62.4514 151.183 62.4514ZM139.452 64.5209V65.8144C139.452 66.6422 139.324 67.2372 139.04 67.4958C138.834 67.7028 138.241 67.8839 137.751 67.8839C137.261 67.8839 136.694 67.7028 136.488 67.4958C136.256 67.263 136.101 66.6422 136.101 65.9437C136.101 65.09 136.204 64.7796 136.488 64.7796C136.771 64.7796 136.874 65.0642 136.874 65.685C136.874 66.5387 136.926 66.5904 137.777 66.5904C138.499 66.5904 138.679 66.487 138.679 66.0731C138.679 65.685 138.499 65.5298 137.983 65.4781C137.545 65.4522 137.235 65.2453 137.184 64.9607C137.106 64.5985 137.287 64.5209 139.452 64.5209Z" fill="#C7C9D9"/>
</g>
</svg>
